<?xml version="1.0" encoding="utf-8"?>
<!-- Generator: Adobe Illustrator 17.1.0, SVG Export Plug-In . SVG Version: 6.00 Build 0)  -->
<!DOCTYPE svg PUBLIC "-//W3C//DTD SVG 1.1//EN" "http://www.w3.org/Graphics/SVG/1.1/DTD/svg11.dtd">
<svg version="1.1" id="Layer_1" xmlns="http://www.w3.org/2000/svg" xmlns:xlink="http://www.w3.org/1999/xlink" x="0px" y="0px"
	 viewBox="0 0 479.1 377.8" enable-background="new 0 0 479.1 377.8" xml:space="preserve">
<g>
	<path fill="#58595B" d="M407.5,361.6c-0.3-0.7-0.4-1.1-0.5-1.1c-0.2,0.1-0.6,0.3-0.9,0.4c-1.7,0.9-4.7,2.2-8.9,2.1
		c-8-0.1-15.1-6.2-15.1-16.1c0-10.8,5.9-16.7,14-16.7c4.5,0,7.6,1.1,10.5,3.1c1.4-5,3.7-9.7,6.6-13.6c-1.2-0.8-3.1-2.1-5.7-3.3v0
		c-3.9-1.8-8.4-2.8-13.4-2.8c-17.8,0-31.3,12-31.3,32.8c0,20.7,13.6,32.7,31.3,32.7c8.6,0,15.2-2.8,15.2-2.8
		c1.4-0.6,3.8-1.6,4.7-2.1C410.2,368.8,408.3,363.5,407.5,361.6"/>
	<path fill="#58595B" d="M0,293.9h34.9c13.4,0,23.5,6.9,23.5,21.3c0,10.6-4.6,16.5-12.7,19.6v0.2c9.6,2.3,14.6,8.3,14.6,18.5
		c0,20.1-15.2,24.3-28.1,24.3H0V293.9L0,293.9z M19.2,361.9h7.4c7,0,14.4-1.2,14.4-9.7c0-9.1-7.6-10-14.2-10h-7.6V361.9L19.2,361.9z
		 M19.2,327.1h7.1c6.3,0,12.8-1.8,12.8-8.9c0-7.7-6.2-8.4-12.6-8.4h-7.3V327.1L19.2,327.1z"/>
	<path fill="#58595B" d="M237,377.8h-17.2v-9.4h-0.2c-3.6,7-10.6,10.9-18.5,10.9c-16,0-24.6-15.4-24.6-33.9
		c0-15.4,8.2-31.6,23.1-31.6c7.4,0,13.7,2.3,18.5,9.5h0.2v-29.6H237V377.8L237,377.8z M207,362.6c6.2,0,11.4-6.9,11.4-16
		c0-9.5-4.6-16.3-11.4-16.3c-7.2,0-11.3,7.2-11.3,15.5C195.7,355.8,199.9,362.6,207,362.6"/>
	<path fill="#58595B" d="M416.5,346.5c0-20.8,13.5-32.8,31.3-32.8c17.8,0,31.3,12,31.3,32.8c0,20.7-13.6,32.7-31.3,32.7
		C430,379.2,416.5,367.2,416.5,346.5 M459.9,346.5c0-9.4-3.5-17.7-12.1-17.7c-8.6,0-12.1,8.3-12.1,17.7c0,9.3,3.5,17.6,12.1,17.6
		C456.4,364.1,459.9,355.8,459.9,346.5"/>
	<path fill="#58595B" d="M167.8,377.8c-0.8-5-1-9.9-1-14.8v-23.3c0-19.1-11.9-26-25.7-26c-7.8,0-14.7,1.3-21.2,4.3v14.6l0,0.2
		c5.2-3.4,11.2-4.7,17.2-4.7c6.7,0,12.2,2.3,12.3,10.8c-2.4-0.5-5.7-0.9-8.7-0.9c-9.9,0-27.8,2.3-27.8,21.4
		c0,13.6,9.5,19.7,20.2,19.7c7,0,13.1-3.4,16.5-9.7v8.3H167.8L167.8,377.8z M149.5,357.9c-2.5,4.3-6.5,6.5-11.6,6.5
		c-4.3,0-7.7-2.5-7.7-6.9c0-6,5-8.3,11.3-8.3c2.8,0,5.6,0.2,8,0.3V357.9L149.5,357.9z"/>
	<path fill="#58595B" d="M103.8,313.7c-8.1,0-12.7,5.1-15.9,13h-0.2v-11.5h-17v62.7h18.6v-26.5c0-12.2,4.8-19.6,13.5-20.3
		c1.8-0.1,4.8,0.4,6.4,1v-17.4C107.6,314.1,105.5,313.7,103.8,313.7"/>
	<path fill="#58595B" d="M302.6,348.8c0-18.6-7.2-35.1-27.2-35.1c-16.8,0-28.9,12-28.9,32.7c0,20.7,13.6,32.8,31.3,32.8
		c6.9,0,13.8-1.2,19.8-4V360c-5.6,3.5-11.4,4.8-16.4,4.8c-9.1,0-14.8-3.4-15.8-12h37.2V348.8L302.6,348.8z M265.2,340.5
		c0.4-7.2,3.6-13.1,10.3-13.1c7.4,0,10.3,5.9,10.3,13.1H265.2L265.2,340.5z"/>
	<path fill="#58595B" d="M333.9,313.7c-10.7,0-22.9,5.9-22.9,20.3c0,22.6,26.5,15.1,26.5,25.7c0,4.3-3.7,5-7.6,5
		c-6.7,0-13.1-2.2-17.5-4.3v14.9c4.9,2,10.7,3.8,18.5,3.8c12.2,0,25.1-4.2,25.1-20.9c0-23.8-27.7-16.1-27.7-25.9
		c0-3.5,4.6-4.4,8.6-4.3c4.3,0.1,10.9,1.9,14.9,4.7v-15.4C346.1,315,339.9,313.7,333.9,313.7"/>
	<g>
		<path fill="#E2183D" d="M364,251.9H167.2c0,0-55.1,0-55.1-55.1V0h196.8c0,0,55.1,0,55.1,55.1V251.9L364,251.9z"/>
		<polygon fill="#FFFFFF" points="226.7,216.5 214.3,216.5 214.3,152.9 226.7,152.9 226.7,216.5 		"/>
		<polygon fill="#FFFFFF" points="258.3,216.5 238,216.5 238,129.3 258.3,129.3 258.3,216.5 		"/>
		<path fill="#FFFFFF" d="M203.2,68.5c0,0,20.5-20,55-13.4c0,0,15.2,2.4,26.8,12.7c0,0,1.7,1.6,3.1,0.3c0,0,1.7-1.3-0.2-3.3
			c0,0-10-13.9-29.8-20c0,0-27.1-9.7-55,3.4c0,0-17.2,7.1-26.7,26.5c0,0-13.6,4.4-23.7,10.1c0,0-3,1.2-1.9,3.5c0,0,1,1.7,3.6,0.4
			c0,0,9.4-3.3,18.6-5.3c0,0-7.3,19,0.3,42.6c3.4,10.5,9.6,21.2,19.1,29.8c0,0,1.5,1.6,3.2,0.5c0,0,1.5-1.1,0.4-2.8
			c0,0-7.6-11.4-10.5-27.6c-2.4-13.2-1.3-31.5,7.9-45.9c0,0,34.9-4.9,64.7,6.3c0,0,50.6,16.5,37.8,47.1c0,0-3.7,10.6-17.7,20.2
			c0,0-2.3,1.4-1.1,3.3c0,0,1.1,1.5,3.4,0.6c0,0,21.4-7,30.6-24.1c0,0,18.7-28.6-25.4-52c0,0-12.1-6.5-27.7-10
			C258.1,71.4,230,64.5,203.2,68.5"/>
	</g>
</g>
</svg>
